<svg width="100" height="100" viewBox="0 0 100 100" fill="none" xmlns="http://www.w3.org/2000/svg">
<g clip-path="url(#clip0_464_14)">
<rect width="100" height="100" fill="white"/>
<rect x="42.8084" y="76.7609" width="9.04376" height="108.897" transform="rotate(-36.7888 42.8084 76.7609)" fill="#D9262C" stroke="white" stroke-width="1.80875"/>
<rect x="55.3187" y="36.6203" width="9.04376" height="140.096" transform="rotate(-16.6373 55.3187 36.6203)" fill="#D9262C" stroke="white" stroke-width="1.80875"/>
<path d="M60.2262 70.4405C57.3764 72.9668 54.4123 73.6592 52.0413 73.7445C50.8495 73.7874 49.8037 73.6766 48.988 73.561C48.7837 73.532 48.5942 73.5024 48.4186 73.475C48.2455 73.448 48.0792 73.422 47.9333 73.401C47.7889 73.3802 47.6452 73.3611 47.5156 73.3511C47.4015 73.3424 47.2279 73.3339 47.0541 73.3649L47.0547 73.3656C46.2538 73.508 45.6269 73.8558 45.201 74.4429C44.8043 74.99 44.6558 75.648 44.5769 76.251C44.4999 76.8395 44.4719 77.5668 44.4207 78.2168C44.3732 78.8188 44.3026 79.4418 44.1579 80.0829L44.0912 80.3579C42.6709 85.8484 37.9589 89.4863 32.769 89.9982C27.6329 90.5045 21.9393 87.9449 18.5739 80.79C14.4399 72.0024 15.5779 59.7472 18.5849 50.5298C18.8521 49.7118 19.3479 48.2164 19.9309 46.825C20.2228 46.1281 20.5285 45.4777 20.8286 44.9598C21.1481 44.4087 21.3948 44.1263 21.5315 44.0342L21.5308 44.0348C21.6627 43.946 21.9517 43.8192 22.4439 43.6801C22.9162 43.5466 23.5086 43.42 24.1949 43.3031C25.5664 43.0696 27.2542 42.8831 28.9856 42.7426C32.4591 42.4607 36.0132 42.3718 37.4191 42.4467C42.0705 42.6946 47.6574 43.8018 52.5594 45.9953C57.3181 48.1249 61.327 51.229 63.3036 55.458L63.4882 55.8709C65.5438 60.6631 64.1149 66.9926 60.2249 70.4403L60.2262 70.4405Z" fill="#D9262C" stroke="white" stroke-width="1.80875"/>
<path d="M79.597 49.0989C75.6603 50.8728 72.1791 50.6234 69.5795 49.9149C68.2861 49.5623 67.2139 49.0977 66.42 48.7211C66.2219 48.6272 66.0408 48.5378 65.8796 48.4586C65.7159 48.3782 65.5779 48.3108 65.4568 48.253C65.3346 48.1947 65.2465 48.1549 65.1829 48.1295C65.1678 48.1235 65.1557 48.1196 65.1471 48.1165C64.7272 48.0688 64.5285 48.1559 64.3995 48.2522C64.2276 48.3806 64.0452 48.6262 63.8263 49.1008C63.6013 49.5887 63.4163 50.1272 63.1286 50.8459C62.855 51.5296 62.5161 52.2962 62.0352 53.0724L61.7066 53.5795C58.2235 58.7211 52.0756 60.8881 46.4544 59.7267C40.5991 58.5167 35.3978 53.7264 34.2156 45.1894C32.836 35.2312 37.5064 23.8154 43.0099 15.7735L43.5454 15.0063C44.0458 14.3021 45.0001 12.9697 46.0218 11.7537C46.5318 11.1467 47.0734 10.5514 47.5946 10.0722C48.0256 9.6759 48.5217 9.28378 49.0281 9.07518L49.2461 8.99691C49.6826 8.86639 50.2319 8.83879 50.7896 8.85361C51.368 8.86899 52.0407 8.93338 52.7663 9.03072C54.2186 9.22556 55.9428 9.56167 57.6632 9.94834C61.0937 10.7194 64.6039 11.7133 66.0352 12.2443C70.5721 13.9278 75.7791 16.7512 80.0014 20.4755C84.2152 24.1924 87.5394 28.8899 88.101 34.325C88.7184 40.2884 85.0442 46.6435 79.5967 49.098L79.597 49.0989Z" fill="#D9262C" stroke="white" stroke-width="1.80875"/>
</g>
<defs>
<clipPath id="clip0_464_14">
<rect width="100" height="100" fill="white"/>
</clipPath>
</defs>
</svg>
